# xmcd
# 
# Track frame offsets:
#     150
#     16040
#     27216
#     35445
#     47218
#     62520
#     87194
#     109777
#     122381
#     140173
#     166958
#     186638
# 
# Disc length: 2793
# 
# Revision: 1
# Processed by: cddbd v1.5.2PL0 Copyright (c) Steve Scherf et al.
# Submitted via: fre:ac v1.0.31
# 
DISCID=9b0ae70c
DTITLE=Jeff Beck - Live At The Hollywood Bowl Disc1
DYEAR=0
DGENRE=Rock/Pop
TTITLE0=The Revolution Will Be Televised
TTITLE1=Over Under Sideways Down
TTITLE2=Heart Full Of Soul
TTITLE3=For Your Love
TTITLE4=Beck's Bolero
TTITLE5=Medley
TTITLE6=Freeway Jam
TTITLE7=You Never Know
TTITLE8=Cause We've Ended As Lovers
TTITLE9=Star Cycle
TTITLE10=Blue Wind
TTITLE11=Big Block
EXTD=
EXTT0=
EXTT1=
EXTT2=
EXTT3=
EXTT4=
EXTT5=
EXTT6=
EXTT7=
EXTT8=
EXTT9=
EXTT10=
EXTT11=
PLAYORDER=
